<?xml version="1.0" standalone="no"?>
<!DOCTYPE svg PUBLIC "-//W3C//DTD SVG 20010904//EN"
 "http://www.w3.org/TR/2001/REC-SVG-20010904/DTD/svg10.dtd">
<svg version="1.0" xmlns="http://www.w3.org/2000/svg"
 width="600.000000pt" height="600.000000pt" viewBox="0 0 600.000000 600.000000"
 preserveAspectRatio="xMidYMid meet">

<g transform="translate(0.000000,600.000000) scale(0.100000,-0.100000)"
fill="#000000" stroke="none">
<path d="M1657 4286 c-69 -19 -125 -62 -161 -126 l-31 -55 -3 -814 c-3 -930
-6 -888 76 -970 79 -79 90 -81 504 -81 197 0 358 -3 358 -7 0 -5 -51 -108
-112 -230 l-113 -223 -90 0 c-57 0 -95 -4 -103 -12 -18 -18 -14 -46 7 -58 27
-14 1995 -14 2022 0 21 12 25 40 7 58 -8 8 -46 12 -102 12 l-91 0 -113 223
c-61 122 -112 225 -112 230 0 4 161 7 358 7 414 0 425 2 504 81 82 82 79 40
76 970 l-3 814 -31 55 c-37 66 -101 113 -174 129 -80 17 -2609 14 -2673 -3z
m2720 -98 c24 -16 49 -44 62 -70 21 -44 21 -51 21 -766 l0 -722 -1460 0 -1460
0 0 722 c0 711 0 722 21 765 22 45 61 79 107 93 15 5 621 8 1348 7 l1320 -2
41 -27z m83 -1673 c0 -81 -35 -142 -102 -176 -36 -18 -82 -19 -1358 -19 -1276
0 -1322 1 -1358 19 -67 34 -102 95 -102 176 l0 45 1460 0 1460 0 0 -45z m-842
-499 c61 -122 112 -226 112 -229 0 -4 -328 -7 -730 -7 -401 0 -730 3 -730 7 0
3 51 107 113 229 l112 224 505 0 505 0 113 -224z"/>
<path d="M2949 4131 c-52 -42 -17 -131 51 -131 44 0 74 31 74 75 0 44 -30 75
-74 75 -15 0 -38 -8 -51 -19z"/>
<path d="M1893 3728 c-41 -20 -44 -48 -41 -377 l3 -313 24 -19 c13 -10 33 -19
45 -19 28 0 564 307 576 331 14 24 12 61 -3 81 -17 22 -547 328 -567 327 -8 0
-25 -5 -37 -11z m430 -296 c53 -31 97 -59 97 -63 0 -3 -100 -64 -222 -134
-123 -71 -233 -135 -245 -143 l-23 -14 0 290 0 291 148 -86 c81 -47 191 -111
245 -141z"/>
<path d="M2698 3519 c-16 -9 -18 -28 -18 -159 0 -81 3 -155 6 -164 5 -13 23
-16 97 -16 78 0 96 3 133 25 76 44 103 137 65 221 -21 47 -59 77 -116 93 -50
14 -144 14 -167 0z m203 -87 c37 -41 41 -115 8 -155 -23 -31 -79 -50 -129 -45
l-35 3 -3 104 c-1 58 0 111 3 119 4 11 20 13 67 10 53 -4 65 -9 89 -36z"/>
<path d="M3146 3439 c-37 -11 -66 -37 -82 -76 -40 -94 26 -193 128 -193 39 0
98 33 98 55 0 23 -26 29 -52 11 -33 -24 -75 -20 -104 9 -14 14 -22 30 -19 35
3 6 46 10 95 10 80 0 89 2 95 20 4 12 -1 36 -12 57 -30 61 -88 89 -147 72z
m65 -49 c4 0 15 -13 24 -30 l16 -30 -71 0 -70 0 11 24 c12 26 47 47 67 40 8
-2 18 -4 23 -4z"/>
<path d="M3468 3431 c-31 -15 -38 -16 -42 -4 -4 8 -16 13 -28 11 -22 -3 -23
-7 -26 -124 -2 -99 0 -123 13 -134 12 -10 18 -10 30 0 11 9 15 34 15 95 0 88
13 115 58 115 36 0 52 -37 52 -121 0 -56 4 -80 15 -89 12 -10 18 -10 30 0 11
9 15 34 15 95 0 88 13 115 58 115 36 0 52 -37 52 -121 0 -56 4 -80 15 -89 12
-10 18 -10 30 0 11 9 15 34 15 101 0 109 -10 136 -56 155 -40 17 -81 8 -116
-23 -12 -10 -18 -12 -18 -4 0 7 -16 19 -35 27 -42 17 -34 18 -77 -5z"/>
<path d="M3926 3440 c-115 -35 -130 -203 -22 -254 70 -33 146 -10 186 56 63
104 -44 233 -164 198z m93 -67 c12 -10 24 -35 28 -55 5 -32 1 -41 -26 -69 -37
-37 -72 -34 -108 7 -29 31 -29 73 -2 108 25 31 75 35 108 9z"/>
<path d="M3940 2460 c-16 -16 -18 -24 -10 -40 10 -19 20 -20 172 -18 143 3
162 5 172 21 9 15 7 22 -13 38 -20 17 -40 19 -162 19 -126 0 -141 -2 -159 -20z"/>
</g>
</svg>
